<svg width="162" height="20" viewBox="0 0 162 20" fill="none" xmlns="http://www.w3.org/2000/svg">
<path d="M89.86 19.653H100.467C100.591 19.653 100.703 19.6035 100.777 19.5291C100.851 19.4548 100.901 19.3432 100.901 19.2193V16.233C100.901 16.109 100.851 15.9975 100.777 15.9232C100.703 15.8364 100.591 15.7993 100.467 15.7993H95.0396C94.8414 15.7993 94.6679 15.7125 94.5316 15.5886C94.3953 15.4523 94.3209 15.2788 94.3209 15.0805V2.47831C94.3209 2.3544 94.2714 2.24287 94.197 2.16853C94.1227 2.09418 94.0111 2.04461 93.8872 2.04461H89.8724C89.7484 2.04461 89.6369 2.09418 89.5626 2.16853C89.4758 2.24287 89.4387 2.3544 89.4387 2.47831V19.2069C89.4387 19.3309 89.4882 19.4424 89.5626 19.5167C89.6369 19.6035 89.7484 19.6406 89.8724 19.6406L89.86 19.653ZM102.958 19.653H106.75C106.874 19.653 106.985 19.6035 107.059 19.5291C107.134 19.4548 107.183 19.3432 107.183 19.2193V7.12516C107.183 7.00124 107.134 6.88972 107.059 6.81537C106.985 6.74102 106.874 6.69145 106.75 6.69145H102.958C102.834 6.69145 102.722 6.74102 102.648 6.81537C102.561 6.88972 102.524 7.00124 102.524 7.12516V19.2193C102.524 19.3432 102.574 19.4548 102.648 19.5291C102.722 19.6035 102.834 19.653 102.958 19.653ZM106.514 0.681537C106.093 0.260223 105.511 0 104.854 0C104.197 0 103.627 0.260223 103.193 0.681537C102.772 1.10285 102.512 1.68525 102.512 2.34201C102.512 2.99876 102.772 3.56877 103.193 4.00248C103.615 4.42379 104.197 4.68402 104.854 4.68402C105.511 4.68402 106.081 4.42379 106.514 4.00248C106.936 3.58117 107.196 2.99876 107.196 2.34201C107.196 1.68525 106.936 1.11524 106.514 0.681537ZM109.377 19.653H112.983C113.107 19.653 113.218 19.6035 113.292 19.5291C113.367 19.4548 113.416 19.3432 113.416 19.2193V11.6481C113.416 10.9913 113.528 10.4833 113.776 10.1487C114.024 9.80173 114.395 9.61586 114.891 9.61586C115.325 9.61586 115.647 9.78934 115.87 10.1487C116.081 10.4833 116.18 10.9665 116.18 11.6109V19.2069C116.18 19.3309 116.229 19.4424 116.304 19.5167C116.378 19.6035 116.489 19.6406 116.613 19.6406H120.244C120.368 19.6406 120.48 19.5911 120.554 19.5167C120.628 19.4424 120.678 19.3309 120.678 19.2069V11.0781C120.678 10.2726 120.603 9.57869 120.467 8.99628C120.331 8.41388 120.12 7.943 119.86 7.58364C119.563 7.16233 119.154 6.85254 118.646 6.64188C118.138 6.43123 117.506 6.3197 116.787 6.3197C115.969 6.3197 115.287 6.50558 114.705 6.85254C114.135 7.2119 113.677 7.75713 113.33 8.47584L113.057 9.04585V7.11276C113.057 6.98885 113.007 6.87732 112.933 6.80297C112.859 6.72862 112.747 6.67906 112.623 6.67906H109.364C109.24 6.67906 109.129 6.72862 109.055 6.80297C108.98 6.87732 108.931 6.98885 108.931 7.11276V19.2069C108.931 19.3309 108.98 19.4424 109.055 19.5167C109.129 19.6035 109.24 19.6406 109.364 19.6406L109.377 19.653ZM130.517 15.9851C130.343 16.2825 130.108 16.518 129.823 16.6667C129.538 16.8154 129.191 16.8897 128.794 16.8897C128.15 16.8897 127.642 16.7038 127.283 16.3445C126.923 15.9851 126.725 15.4523 126.675 14.7584C126.675 14.6592 126.675 14.5601 126.713 14.461C126.75 14.3742 126.799 14.2875 126.861 14.2131C126.936 14.1388 127.01 14.0768 127.097 14.0397C127.183 14.0025 127.283 13.9777 127.382 13.9777H134.792C134.903 13.9777 135.015 13.9281 135.102 13.8538C135.176 13.7794 135.238 13.6679 135.238 13.5564V13.2714C135.263 13.0607 135.263 12.9244 135.263 12.8501C135.263 11.8835 135.089 11.0037 134.742 10.223C134.395 9.42999 133.887 8.72367 133.193 8.11648C132.537 7.52169 131.818 7.07559 131.037 6.79058C130.257 6.49319 129.401 6.35688 128.472 6.35688C127.543 6.35688 126.638 6.51797 125.845 6.82776C125.052 7.14994 124.333 7.62082 123.689 8.26518C123.057 8.90954 122.586 9.64064 122.264 10.4585C121.942 11.2763 121.781 12.2057 121.781 13.2094C121.781 14.2131 121.954 15.1673 122.289 15.9975C122.623 16.8278 123.131 17.5713 123.813 18.2156C124.47 18.8104 125.201 19.2565 126.006 19.5539C126.824 19.8513 127.716 20 128.695 20C129.501 20 130.232 19.9133 130.913 19.7274C131.582 19.5415 132.202 19.2813 132.76 18.9095C133.218 18.5998 133.627 18.228 133.974 17.8067C134.321 17.3854 134.618 16.9021 134.854 16.3693C134.891 16.2949 134.903 16.2206 134.891 16.1586C134.891 16.0843 134.866 16.0223 134.817 15.948C134.779 15.886 134.717 15.8364 134.656 15.7993C134.594 15.7621 134.519 15.7497 134.445 15.7497H130.913C130.827 15.7497 130.752 15.7745 130.69 15.8116C130.628 15.8488 130.566 15.9108 130.529 15.9727L130.517 15.9851ZM126.75 10.855C126.836 10.285 127.022 9.8513 127.332 9.5663C127.642 9.2689 128.063 9.13259 128.596 9.13259C129.129 9.13259 129.563 9.28129 129.872 9.5663C130.182 9.8513 130.38 10.285 130.467 10.855C130.48 10.9542 130.467 11.0657 130.442 11.1648C130.418 11.2639 130.368 11.3507 130.294 11.4374C130.219 11.5242 130.145 11.5861 130.046 11.6233C129.959 11.6605 129.848 11.6853 129.748 11.6853H127.456C127.344 11.6853 127.245 11.6605 127.159 11.6233C127.072 11.5861 126.985 11.5242 126.911 11.4374C126.836 11.3507 126.787 11.2639 126.762 11.1648C126.737 11.0657 126.725 10.9665 126.737 10.855H126.75ZM144.37 19.653H148.187C148.261 19.653 148.323 19.6406 148.373 19.6159C148.435 19.5911 148.485 19.5415 148.522 19.4919C148.571 19.4424 148.596 19.3804 148.608 19.3185C148.621 19.2565 148.621 19.1945 148.608 19.1202C148.559 18.8848 148.522 18.6245 148.497 18.3271C148.472 18.0421 148.46 17.72 148.46 17.373V11.3135C148.46 10.3346 148.323 9.50434 148.051 8.83519C147.791 8.16605 147.382 7.63321 146.861 7.24907C146.428 6.93928 145.857 6.70384 145.151 6.55514C144.432 6.40644 143.577 6.3197 142.598 6.3197C140.913 6.3197 139.538 6.59232 138.472 7.13755C137.419 7.68278 136.675 8.50062 136.242 9.57869C136.217 9.65304 136.204 9.71499 136.204 9.78934C136.204 9.86369 136.242 9.92565 136.279 9.98761C136.316 10.0496 136.378 10.0991 136.44 10.1363C136.502 10.1735 136.576 10.1859 136.651 10.1859H140.046C140.133 10.1859 140.207 10.1611 140.269 10.1239C140.331 10.0867 140.393 10.0248 140.43 9.95043C140.591 9.65304 140.827 9.42999 141.149 9.28129C141.458 9.13259 141.83 9.07063 142.276 9.07063C142.797 9.07063 143.206 9.18216 143.503 9.4052C143.8 9.64065 143.974 9.97522 144.011 10.4213C144.011 10.5204 144.011 10.6196 143.974 10.7063C143.949 10.7931 143.9 10.8798 143.825 10.9665C143.763 11.0409 143.677 11.1028 143.59 11.14C143.503 11.1772 143.404 11.202 143.305 11.202C142.388 11.2268 141.533 11.3135 140.74 11.4622C139.959 11.6109 139.24 11.8216 138.608 12.1066C137.629 12.5279 136.898 13.0855 136.403 13.7546C135.919 14.4238 135.672 15.2169 135.672 16.1338C135.672 16.7782 135.783 17.3482 135.994 17.8439C136.204 18.3271 136.527 18.7485 136.96 19.0954C137.344 19.3928 137.791 19.6159 138.299 19.7646C138.807 19.9133 139.377 19.9876 140.009 19.9876C141.297 19.9876 142.313 19.6283 143.069 18.8972C143.169 18.798 143.28 18.7361 143.404 18.7113C143.528 18.6865 143.664 18.6865 143.788 18.7237C143.924 18.7608 144.024 18.8352 144.11 18.9343C144.197 19.0335 144.247 19.145 144.271 19.2813L144.309 19.5043L144.333 19.6159L144.37 19.653ZM144.036 14.1388V14.9195C144.036 15.5886 143.85 16.1462 143.491 16.5428C143.144 16.9269 142.636 17.1499 142.004 17.1499C141.496 17.1499 141.112 17.026 140.851 16.7906C140.579 16.5428 140.455 16.1834 140.455 15.7249C140.455 15.1425 140.69 14.6468 141.161 14.2627C141.62 13.891 142.289 13.6059 143.181 13.4325C143.292 13.4077 143.392 13.4201 143.503 13.4325C143.602 13.4572 143.701 13.5068 143.788 13.5812C143.875 13.6555 143.937 13.7299 143.986 13.829C144.036 13.9281 144.061 14.0273 144.061 14.1388H144.036ZM150.517 19.653H154.123C154.247 19.653 154.358 19.6035 154.432 19.5291C154.519 19.4548 154.556 19.3432 154.556 19.2193V13.4077C154.556 12.5155 154.755 11.834 155.151 11.3631C155.548 10.8922 156.143 10.6568 156.936 10.6568C157.01 10.6568 157.084 10.6568 157.171 10.6568C157.258 10.6568 157.344 10.6568 157.406 10.6691C157.468 10.6691 157.53 10.6691 157.58 10.6444C157.629 10.632 157.679 10.5948 157.729 10.5452C157.778 10.4957 157.815 10.4585 157.828 10.3965C157.853 10.347 157.865 10.285 157.865 10.223V6.77819C157.865 6.66667 157.815 6.55514 157.741 6.48079C157.667 6.40644 157.568 6.34449 157.456 6.34449H157.344C156.489 6.34449 155.808 6.57993 155.3 7.05081C154.779 7.53408 154.42 8.26518 154.222 9.23172L153.949 10.5824V7.10037C153.949 6.97646 153.9 6.86493 153.825 6.79058C153.751 6.71623 153.639 6.66667 153.515 6.66667H150.492C150.368 6.66667 150.256 6.71623 150.182 6.79058C150.108 6.86493 150.058 6.97646 150.058 7.10037V19.1945C150.058 19.3185 150.108 19.43 150.182 19.5043C150.256 19.5911 150.368 19.6283 150.492 19.6283L150.517 19.653Z" fill="white"/>
<path d="M68.088 10.8799V2.56512C68.088 2.30489 67.8774 2.09424 67.6172 2.09424H63.3049C63.0447 2.09424 62.834 2.30489 62.834 2.56512V7.76958C62.834 8.0298 62.6234 8.24046 62.3631 8.24046H59.3892C59.1289 8.24046 58.9183 8.0298 58.9183 7.76958V2.56512C58.9183 2.30489 58.7076 2.09424 58.4474 2.09424H54.1351C53.8749 2.09424 53.6642 2.30489 53.6642 2.56512V19.1946C53.6642 19.4548 53.8749 19.6655 54.1351 19.6655H58.4474C58.7076 19.6655 58.9183 19.4548 58.9183 19.1946V13.9902C58.9183 13.7299 59.1289 13.5193 59.3892 13.5193H62.3631C62.6234 13.5193 62.834 13.7299 62.834 13.9902V19.1946C62.834 19.4548 63.0447 19.6655 63.3049 19.6655H67.6172C67.8774 19.6655 68.088 19.4548 68.088 19.1946V10.8799Z" fill="white"/>
<path d="M74.5687 11.0285C74.5687 10.0372 74.9653 9.14499 75.622 8.48824C76.2664 7.84387 77.171 7.43495 78.1623 7.43495C78.6084 7.43495 79.0421 7.52169 79.4386 7.67039C79.6617 7.75713 79.8723 7.86866 80.083 7.99257C80.2565 8.1041 80.4795 8.09171 80.6158 7.94301L83.8996 4.65924C84.0607 4.49815 84.0483 4.23793 83.8748 4.08923C83.1561 3.49443 82.363 3.02355 81.508 2.67659C80.4547 2.25528 79.3147 2.03223 78.1499 2.03223C75.6716 2.03223 73.4163 3.03594 71.793 4.65924C70.1697 6.28254 69.166 8.5378 69.166 11.0161C69.166 13.4944 70.1697 15.7497 71.793 17.373C73.4163 18.9963 75.6716 20 78.1499 20C79.3147 20 80.4547 19.777 81.508 19.3556C82.363 19.0087 83.1561 18.5378 83.8748 17.943C84.0483 17.7943 84.0483 17.5341 83.8996 17.373L80.6034 14.0768C80.4671 13.9405 80.2441 13.9281 80.0706 14.0273C79.8723 14.1512 79.6493 14.2627 79.4262 14.3495C79.0173 14.4981 78.596 14.5849 78.1499 14.5849C77.1586 14.5849 76.2664 14.1884 75.6096 13.5316C74.9653 12.8872 74.5563 11.9827 74.5563 10.9913L74.5687 11.0285Z" fill="white"/>
<path fill-rule="evenodd" clip-rule="evenodd" d="M36.0806 6.14617C36.0806 5.88595 36.2913 5.67529 36.5515 5.67529H46.0063C46.2665 5.67529 46.4772 5.88595 46.4772 6.14617V15.6009C46.4772 15.8612 46.2665 16.0718 46.0063 16.0718H36.5515C36.2913 16.0718 36.0806 15.8612 36.0806 15.6009V6.14617Z" fill="white"/>
<path fill-rule="evenodd" clip-rule="evenodd" d="M18.4969 6.14617C18.4969 5.88595 18.7075 5.67529 18.9678 5.67529H28.4225C28.6828 5.67529 28.8934 5.88595 28.8934 6.14617V15.6009C28.8934 15.8612 28.6828 16.0718 28.4225 16.0718H18.9678C18.7075 16.0718 18.4969 15.8612 18.4969 15.6009V6.14617Z" fill="white"/>
<path fill-rule="evenodd" clip-rule="evenodd" d="M0.913269 6.14617C0.913269 5.88595 1.12393 5.67529 1.38415 5.67529H10.8389C11.0991 5.67529 11.3098 5.88595 11.3098 6.14617V15.6009C11.3098 15.8612 11.0991 16.0718 10.8389 16.0718H1.38415C1.12393 16.0718 0.913269 15.8612 0.913269 15.6009V6.14617Z" fill="white"/>
<path d="M158.757 0C159.067 0 159.377 0.0619579 159.649 0.173482C159.934 0.297398 160.195 0.47088 160.405 0.681537C160.616 0.892193 160.789 1.15242 160.913 1.43742C161.025 1.71004 161.087 2.01983 161.087 2.32962C161.087 2.63941 161.025 2.94919 160.913 3.22181C160.814 3.48203 160.653 3.70508 160.48 3.90335L160.405 3.97769C160.195 4.18835 159.934 4.36183 159.649 4.48575C159.377 4.59727 159.067 4.65923 158.757 4.65923C158.447 4.65923 158.138 4.59727 157.865 4.48575C157.58 4.36183 157.32 4.18835 157.109 3.97769C156.898 3.76704 156.725 3.50682 156.601 3.22181C156.49 2.94919 156.428 2.63941 156.428 2.32962C156.428 2.01983 156.49 1.71004 156.601 1.43742C156.725 1.15242 156.898 0.892193 157.109 0.681537L157.183 0.607187C157.382 0.421313 157.617 0.272615 157.877 0.173482C158.15 0.0619579 158.46 0 158.77 0L158.757 0ZM159.439 3.60595L158.881 2.63941H158.361V3.48203H157.877V1.04089H159.154C159.377 1.04089 159.575 1.12763 159.724 1.27633C159.872 1.42503 159.959 1.6233 159.959 1.84634C159.959 2.06939 159.872 2.26766 159.724 2.41636C159.637 2.5031 159.55 2.56506 159.439 2.60223L159.885 3.37051L159.463 3.61834L159.439 3.60595ZM159.129 1.52416H158.348V2.15613H159.129C159.216 2.15613 159.29 2.11896 159.352 2.06939C159.414 2.00743 159.439 1.93309 159.439 1.84634C159.439 1.7596 159.402 1.68525 159.352 1.6233C159.29 1.56134 159.216 1.53656 159.129 1.53656V1.52416ZM159.463 0.63197C159.253 0.545229 159.005 0.495663 158.757 0.495663C158.509 0.495663 158.262 0.545229 158.051 0.63197C157.828 0.718711 157.617 0.86741 157.456 1.0285L157.419 1.06568C157.258 1.22677 157.134 1.42503 157.047 1.63569C156.96 1.84634 156.911 2.09418 156.911 2.34201C156.911 2.58984 156.96 2.83767 157.047 3.04833C157.146 3.27138 157.283 3.48203 157.444 3.65551C157.617 3.829 157.815 3.9653 158.051 4.05204C158.262 4.13879 158.509 4.18835 158.757 4.18835C159.005 4.18835 159.253 4.13879 159.463 4.05204C159.674 3.9653 159.872 3.84139 160.034 3.6803L160.071 3.64312C160.244 3.46964 160.38 3.27138 160.467 3.04833C160.554 2.83767 160.604 2.58984 160.604 2.34201C160.604 2.09418 160.554 1.84634 160.467 1.63569C160.38 1.41264 160.232 1.20198 160.071 1.0285C159.897 0.855019 159.699 0.718711 159.463 0.63197Z" fill="white"/>
</svg>
